<?xml version="1.0" encoding="UTF-8"?>
<svg width="37" height="37" viewBox="0 0 128 128" xmlns="http://www.w3.org/2000/svg">
 
 <path d="m65.332 24.036c-0.48949 0.20181-0.81541 0.9004-0.77693 1.6653v10.102l-16.096 0.11177c-15.244 0.18965-29.686 19.092-19.538 40.74l2.3315 4.9952 9.9904-4.6622-2.3311-4.9952c-7.4581-15.908 3.9687-24.93 9.5468-25.087h16.097v11.545c-0.02877 0.81648 0.35416 1.5344 0.88801 1.6649 0.07431 0.01193 0.14924 0.01193 0.22354 0 0.15718-0.02349 0.30888-0.09987 0.444-0.22353l9.3246-8.1035 9.4357-8.2144c0.08035-0.05884 0.15546-0.1328 0.22353-0.22014 0.31782-0.40776 0.44775-1.0596 0.3319-1.665-0.07293-0.36683-0.23047-0.68194-0.444-0.88809l-9.4357-8.3259c-0.03563-0.04079-0.07293-0.07812-0.11168-0.11177l-9.3246-8.2145c-0.20809-0.14527-0.44175-0.1845-0.66584-0.11177-0.0372-3e-3 -0.07448-3e-3 -0.11168 0l-0.0016 3.76e-4zm31.415 22.313-9.9905 4.6623 2.3312 4.9954c7.4581 15.908-3.969 24.93-9.5468 25.087h-16.097v-11.545c0.01245-0.44941-0.10077-0.886-0.31194-1.2028-0.21117-0.31685-0.50078-0.4847-0.79792-0.46245-0.15718 0.02349-0.3089 0.09986-0.44402 0.22353l-9.3246 8.1036-9.4357 8.2144c-0.46468 0.34016-0.69924 1.1376-0.5551 1.8871 0.07294 0.36681 0.23048 0.68189 0.444 0.88802l9.4357 8.3255c0.03563 0.04079 0.07293 0.07812 0.11168 0.11177l9.3246 8.2147c0.2081 0.14529 0.44176 0.18451 0.66586 0.11178 0.53395-0.13051 0.91692-0.84868 0.88802-1.6653v-10.102l16.096-0.11177c15.244-0.18966 29.686-19.093 19.537-40.74l-2.3311-4.9952v-0.0024z" fill="#7da9ae"/>
</svg>
